Wavefont-Bold.ufo
<glyph name="_4" format="2">
  <advance width="100.0"/>
  <unicode hex="0104"/>
  <unicode hex="0063"/>
  <outline>
    <contour>
      <point x="20.0" y="40.0" type="curve" smooth="yes"/>
      <point x="80.0" y="40.0" type="line"/>
      <point x="91.0" y="40.0"/>
      <point x="100.0" y="31.0"/>
      <point x="100.0" y="20.0" type="curve" smooth="yes"/>
      <point x="100.0" y="20.0" type="line"/>
      <point x="100.0" y="9.0"/>
      <point x="91.0" y="0.0"/>
      <point x="80.0" y="0.0" type="curve" smooth="yes"/>
      <point x="20.0" y="0.0" type="line"/>
      <point x="9.0" y="0.0"/>
      <point x="0.0" y="9.0"/>
      <point x="0.0" y="20.0" type="curve" smooth="yes"/>
      <point x="0.0" y="20.0" type="line"/>
      <point x="0.0" y="31.0"/>
      <point x="9.0" y="40.0"/>
    </contour>
  </outline>
</glyph>
<glyph name="_6" format="2">
  <advance width="100.0"/>
  <unicode hex="0106"/>
  <unicode hex="0064"/>
  <outline>
    <contour>
      <point x="30.0" y="60.0" type="curve" smooth="yes"/>
      <point x="70.0" y="60.0" type="line"/>
      <point x="86.5" y="60.0"/>
      <point x="100.0" y="46.5"/>
      <point x="100.0" y="30.0" type="curve" smooth="yes"/>
      <point x="100.0" y="30.0" type="line"/>
      <point x="100.0" y="13.5"/>
      <point x="86.5" y="0.0"/>
      <point x="70.0" y="0.0" type="curve" smooth="yes"/>
      <point x="30.0" y="0.0" type="line"/>
      <point x="13.5" y="0.0"/>
      <point x="0.0" y="13.5"/>
      <point x="0.0" y="30.0" type="curve" smooth="yes"/>
      <point x="0.0" y="30.0" type="line"/>
      <point x="0.0" y="46.5"/>
      <point x="13.5" y="60.0"/>
    </contour>
  </outline>
</glyph>
<glyph name="_8" format="2">
  <advance width="100.0"/>
  <unicode hex="0108"/>
  <unicode hex="0065"/>
  <outline>
    <contour>
      <point x="40.0" y="80.0" type="curve" smooth="yes"/>
      <point x="60.0" y="80.0" type="line"/>
      <point x="82.0" y="80.0"/>
      <point x="100.0" y="62.0"/>
      <point x="100.0" y="40.0" type="curve" smooth="yes"/>
      <point x="100.0" y="40.0" type="line"/>
      <point x="100.0" y="18.0"/>
      <point x="82.0" y="0.0"/>
      <point x="60.0" y="0.0" type="curve" smooth="yes"/>
      <point x="40.0" y="0.0" type="line"/>
      <point x="18.0" y="0.0"/>
      <point x="0.0" y="18.0"/>
      <point x="0.0" y="40.0" type="curve" smooth="yes"/>
      <point x="0.0" y="40.0" type="line"/>
      <point x="0.0" y="62.0"/>
      <point x="18.0" y="80.0"/>
    </contour>
  </outline>
</glyph>
<glyph name="_10" format="2">
  <advance width="100.0"/>
  <unicode hex="010A"/>
  <unicode hex="0031"/>
  <unicode hex="0066"/>
  <outline>
    <contour>
      <point x="50.0" y="100.0" type="curve" smooth="yes"/>
      <point x="50.0" y="100.0" type="line"/>
      <point x="77.5" y="100.0"/>
      <point x="100.0" y="77.5"/>
      <point x="100.0" y="50.0" type="curve" smooth="yes"/>
      <point x="100.0" y="50.0" type="line"/>
      <point x="100.0" y="22.5"/>
      <point x="77.5" y="0.0"/>
      <point x="50.0" y="0.0" type="curve" smooth="yes"/>
      <point x="50.0" y="0.0" type="line"/>
      <point x="22.5" y="0.0"/>
      <point x="0.0" y="22.5"/>
      <point x="0.0" y="50.0" type="curve" smooth="yes"/>
      <point x="0.0" y="50.0" type="line"/>
      <point x="0.0" y="77.5"/>
      <point x="22.5" y="100.0"/>
    </contour>
  </outline>
</glyph>
<glyph name="_11" format="2">
  <advance width="100.0"/>
  <unicode hex="010B"/>
  <outline>
    <contour>
      <point x="0.0" y="50.30612244897959" type="line"/>
      <point x="0.0" y="60.30612244897959" type="line"/>
      <point x="100.0" y="60.30612244897959" type="line"/>
      <point x="100.0" y="50.30612244897959" type="line"/>
    </contour>
    <component base="cap"/>
    <component base="cap" yOffset="10.0"/>
  </outline>
</glyph>
<glyph name="_13" format="2">
  <advance width="100.0"/>
  <unicode hex="010D"/>
  <outline>
    <contour>
      <point x="0.0" y="50.30612244897959" type="line"/>
      <point x="0.0" y="80.3061224489796" type="line"/>
      <point x="100.0" y="80.3061224489796" type="line"/>
      <point x="100.0" y="50.30612244897959" type="line"/>
    </contour>
    <component base="cap"/>
    <component base="cap" yOffset="30.0"/>
  </outline>
</glyph>
<glyph name="_15" format="2">
  <advance width="100.0"/>
  <unicode hex="010F"/>
  <outline>
    <contour>
      <point x="0.0" y="50.30612244897959" type="line"/>
      <point x="0.0" y="100.3061224489796" type="line"/>
      <point x="100.0" y="100.3061224489796" type="line"/>
      <point x="100.0" y="50.30612244897959" type="line"/>
    </contour>
    <component base="cap"/>
    <component base="cap" yOffset="50.0"/>
  </outline>
</glyph>
<glyph name="_16" format="2">
  <advance width="100.0"/>
  <unicode hex="0110"/>
  <unicode hex="0069"/>
  <outline>
    <contour>
      <point x="0.0" y="50.30612244897959" type="line"/>
      <point x="0.0" y="110.3061224489796" type="line"/>
      <point x="100.0" y="110.3061224489796" type="line"/>
      <point x="100.0" y="50.30612244897959" type="line"/>
    </contour>
    <component base="cap"/>
    <component base="cap" yOffset="60.0"/>
  </outline>
</glyph>
<glyph name="_17" format="2">
  <advance width="100.0"/>
  <unicode hex="0111"/>
  <outline>
    <contour>
      <point x="0.0" y="50.30612244897959" type="line"/>
      <point x="0.0" y="120.3061224489796" type="line"/>
      <point x="100.0" y="120.3061224489796" type="line"/>
      <point x="100.0" y="50.30612244897959" type="line"/>
    </contour>
    <component base="cap"/>
    <component base="cap" yOffset="70.0"/>
  </outline>
</glyph>
<glyph name="_18" format="2">
  <advance width="100.0"/>
  <unicode hex="0112"/>
  <unicode hex="006A"/>
  <outline>
    <contour>
      <point x="0.0" y="50.30612244897959" type="line"/>
      <point x="0.0" y="130.30612244897958" type="line"/>
      <point x="100.0" y="130.30612244897958" type="line"/>
      <point x="100.0" y="50.30612244897959" type="line"/>
    </contour>
    <component base="cap"/>
    <component base="cap" yOffset="80.0"/>
  </outline>
</glyph>
<glyph name="_19" format="2">
  <advance width="100.0"/>
  <unicode hex="0113"/>
  <outline>
    <contour>
      <point x="0.0" y="50.30612244897959" type="line"/>
      <point x="0.0" y="140.30612244897958" type="line"/>
      <point x="100.0" y="140.30612244897958" type="line"/>
      <point x="100.0" y="50.30612244897959" type="line"/>
    </contour>
    <component base="cap"/>
    <component base="cap" yOffset="90.0"/>
  </outline>
</glyph>
<glyph name="_20" format="2">
  <advance width="100.0"/>
  <unicode hex="0114"/>
  <unicode hex="0032"/>
  <unicode hex="006B"/>
  <outline>
    <contour>
      <point x="0.0" y="50.30612244897959" type="line"/>
      <point x="0.0" y="150.30612244897958" type="line"/>
      <point x="100.0" y="150.30612244897958" type="line"/>
      <point x="100.0" y="50.30612244897959" type="line"/>
    </contour>
    <component base="cap"/>
    <component base="cap" yOffset="100.0"/>
  </outline>
</glyph>
<glyph name="_21" format="2">
  <advance width="100.0"/>
  <unicode hex="0115"/>
  <outline>
    <contour>
      <point x="0.0" y="50.30612244897959" type="line"/>
      <point x="0.0" y="160.30612244897958" type="line"/>
      <point x="100.0" y="160.30612244897958" type="line"/>
      <point x="100.0" y="50.30612244897959" type="line"/>
    </contour>
    <component base="cap"/>
    <component base="cap" yOffset="110.0"/>
  </outline>
</glyph>
<glyph name="_22" format="2">
  <advance width="100.0"/>
  <unicode hex="0116"/>
  <unicode hex="006C"/>
  <outline>
    <contour>
      <point x="0.0" y="50.30612244897959" type="line"/>
      <point x="0.0" y="170.30612244897958" type="line"/>
      <point x="100.0" y="170.30612244897958" type="line"/>
      <point x="100.0" y="50.30612244897959" type="line"/>
    </contour>
    <component base="cap"/>
    <component base="cap" yOffset="120.0"/>
  </outline>
</glyph>
<glyph name="_23" format="2">
  <advance width="100.0"/>
  <unicode hex="0117"/>
  <outline>
    <contour>
      <point x="0.0" y="50.30612244897959" type="line"/>
      <point x="0.0" y="180.30612244897958" type="line"/>
      <point x="100.0" y="180.30612244897958" type="line"/>
      <point x="100.0" y="50.30612244897959" type="line"/>
    </contour>
    <component base="cap"/>
    <component base="cap" yOffset="130.0"/>
  </outline>
</glyph>
<glyph name="_24" format="2">
  <advance width="100.0"/>
  <unicode hex="0118"/>
  <unicode hex="006D"/>
  <outline>
    <contour>
      <point x="0.0" y="50.30612244897959" type="line"/>
      <point x="0.0" y="190.30612244897958" type="line"/>
      <point x="100.0" y="190.30612244897958" type="line"/>
      <point x="100.0" y="50.30612244897959" type="line"/>
    </contour>
    <component base="cap"/>
    <component base="cap" yOffset="140.0"/>
  </outline>
</glyph>
<glyph name="_25" format="2">
  <advance width="100.0"/>
  <unicode hex="0119"/>
  <outline>
    <contour>
      <point x="0.0" y="50.30612244897959" type="line"/>
      <point x="0.0" y="200.30612244897958" type="line"/>
      <point x="100.0" y="200.30612244897958" type="line"/>
      <point x="100.0" y="50.30612244897959" type="line"/>
    </contour>
    <component base="cap"/>
    <component base="cap" yOffset="150.0"/>
  </outline>
</glyph>
<glyph name="_26" format="2">
  <advance width="100.0"/>
  <unicode hex="011A"/>
  <unicode hex="006E"/>
  <outline>
    <contour>
      <point x="0.0" y="50.30612244897959" type="line"/>
      <point x="0.0" y="210.30612244897958" type="line"/>
      <point x="100.0" y="210.30612244897958" type="line"/>
      <point x="100.0" y="50.30612244897959" type="line"/>
    </contour>
    <component base="cap"/>
    <component base="cap" yOffset="160.0"/>
  </outline>
</glyph>
<glyph name="_27" format="2">
  <advance width="100.0"/>
  <unicode hex="011B"/>
  <outline>
    <contour>
      <point x="0.0" y="50.30612244897959" type="line"/>
      <point x="0.0" y="220.30612244897958" type="line"/>
      <point x="100.0" y="220.30612244897958" type="line"/>
      <point x="100.0" y="50.30612244897959" type="line"/>
    </contour>
    <component base="cap"/>
    <component base="cap" yOffset="170.0"/>
  </outline>
</glyph>
<glyph name="_28" format="2">
  <advance width="100.0"/>
  <unicode hex="011C"/>
  <unicode hex="2583"/>
  <unicode hex="006F"/>
  <outline>
    <contour>
      <point x="0.0" y="50.30612244897959" type="line"/>
      <point x="0.0" y="230.30612244897958" type="line"/>
      <point x="100.0" y="230.30612244897958" type="line"/>
      <point x="100.0" y="50.30612244897959" type="line"/>
    </contour>
    <component base="cap"/>
    <component base="cap" yOffset="180.0"/>
  </outline>
</glyph>
<glyph name="_29" format="2">
  <advance width="100.0"/>
  <unicode hex="011D"/>
  <outline>
    <contour>
      <point x="0.0" y="50.30612244897959" type="line"/>
      <point x="0.0" y="240.30612244897958" type="line"/>
      <point x="100.0" y="240.30612244897958" type="line"/>
      <point x="100.0" y="50.30612244897959" type="line"/>
    </contour>
    <component base="cap"/>
    <component base="cap" yOffset="190.0"/>
  </outline>
</glyph>
<glyph name="_30" format="2">
  <advance width="100.0"/>
  <unicode hex="011E"/>
  <unicode hex="0033"/>
  <unicode hex="0070"/>
  <outline>
    <contour>
      <point x="0.0" y="50.30612244897959" type="line"/>
      <point x="0.0" y="250.30612244897958" type="line"/>
      <point x="100.0" y="250.30612244897958" type="line"/>
      <point x="100.0" y="50.30612244897959" type="line"/>
    </contour>
    <component base="cap"/>
    <component base="cap" yOffset="200.0"/>
  </outline>
</glyph>
<glyph name="_31" format="2">
  <advance width="100.0"/>
  <unicode hex="011F"/>
  <outline>
    <contour>
      <point x="0.0" y="50.30612244897959" type="line"/>
      <point x="0.0" y="260.3061224489796" type="line"/>
      <point x="100.0" y="260.3061224489796" type="line"/>
      <point x="100.0" y="50.30612244897959" type="line"/>
    </contour>
    <component base="cap"/>
    <component base="cap" yOffset="210.0"/>
  </outline>
</glyph>
<glyph name="_32" format="2">
  <advance width="100.0"/>
  <unicode hex="0120"/>
  <unicode hex="0071"/>
  <outline>
    <contour>
      <point x="0.0" y="50.30612244897959" type="line"/>
      <point x="0.0" y="270.3061224489796" type="line"/>
      <point x="100.0" y="270.3061224489796" type="line"/>
      <point x="100.0" y="50.30612244897959" type="line"/>
    </contour>
    <component base="cap"/>
    <component base="cap" yOffset="220.0"/>
  </outline>
</glyph>
<glyph name="_34" format="2">
  <advance width="100.0"/>
  <unicode hex="0122"/>
  <unicode hex="0072"/>
  <outline>
    <contour>
      <point x="0.0" y="50.30612244897959" type="line"/>
      <point x="0.0" y="290.3061224489796" type="line"/>
      <point x="100.0" y="290.3061224489796" type="line"/>
      <point x="100.0" y="50.30612244897959" type="line"/>
    </contour>
    <component base="cap"/>
    <component base="cap" yOffset="240.0"/>
  </outline>
</glyph>
<glyph name="_38" format="2">
  <advance width="100.0"/>
  <unicode hex="0126"/>
  <unicode hex="0074"/>
  <outline>
    <contour>
      <point x="0.0" y="50.30612244897959" type="line"/>
      <point x="0.0" y="330.3061224489796" type="line"/>
      <point x="100.0" y="330.3061224489796" type="line"/>
      <point x="100.0" y="50.30612244897959" type="line"/>
    </contour>
    <component base="cap"/>
    <component base="cap" yOffset="280.0"/>
  </outline>
</glyph>
<glyph name="_39" format="2">
  <advance width="100.0"/>
  <unicode hex="0127"/>
  <outline>
    <contour>
      <point x="0.0" y="50.30612244897959" type="line"/>
      <point x="0.0" y="340.3061224489796" type="line"/>
      <point x="100.0" y="340.3061224489796" type="line"/>
      <point x="100.0" y="50.30612244897959" type="line"/>
    </contour>
    <component base="cap"/>
    <component base="cap" yOffset="290.0"/>
  </outline>
</glyph>
<glyph name="_42" format="2">
  <advance width="100.0"/>
  <unicode hex="012A"/>
  <unicode hex="2584"/>
  <unicode hex="0076"/>
  <outline>
    <contour>
      <point x="0.0" y="50.30612244897959" type="line"/>
      <point x="0.0" y="370.3061224489796" type="line"/>
      <point x="100.0" y="370.3061224489796" type="line"/>
      <point x="100.0" y="50.30612244897959" type="line"/>
    </contour>
    <component base="cap"/>
    <component base="cap" yOffset="320.0"/>
  </outline>
</glyph>
<glyph name="_43" format="2">
  <advance width="100.0"/>
  <unicode hex="012B"/>
  <outline>
    <contour>
      <point x="0.0" y="50.30612244897959" type="line"/>
      <point x="0.0" y="380.3061224489796" type="line"/>
      <point x="100.0" y="380.3061224489796" type="line"/>
      <point x="100.0" y="50.30612244897959" type="line"/>
    </contour>
    <component base="cap"/>
    <component base="cap" yOffset="330.0"/>
  </outline>
</glyph>
<glyph name="_44" format="2">
  <advance width="100.0"/>
  <unicode hex="012C"/>
  <unicode hex="0077"/>
  <outline>
    <contour>
      <point x="0.0" y="50.30612244897959" type="line"/>
      <point x="0.0" y="390.3061224489796" type="line"/>
      <point x="100.0" y="390.3061224489796" type="line"/>
      <point x="100.0" y="50.30612244897959" type="line"/>
    </contour>
    <component base="cap"/>
    <component base="cap" yOffset="340.0"/>
  </outline>
</glyph>
<glyph name="_46" format="2">
  <advance width="100.0"/>
  <unicode hex="012E"/>
  <unicode hex="0078"/>
  <outline>
    <contour>
      <point x="0.0" y="50.30612244897959" type="line"/>
      <point x="0.0" y="410.3061224489796" type="line"/>
      <point x="100.0" y="410.3061224489796" type="line"/>
      <point x="100.0" y="50.30612244897959" type="line"/>
    </contour>
    <component base="cap"/>
    <component base="cap" yOffset="360.0"/>
  </outline>
</glyph>
<glyph name="_47" format="2">
  <advance width="100.0"/>
  <unicode hex="012F"/>
  <outline>
    <contour>
      <point x="0.0" y="50.30612244897959" type="line"/>
      <point x="0.0" y="420.3061224489796" type="line"/>
      <point x="100.0" y="420.3061224489796" type="line"/>
      <point x="100.0" y="50.30612244897959" type="line"/>
    </contour>
    <component base="cap"/>
    <component base="cap" yOffset="370.0"/>
  </outline>
</glyph>
<glyph name="_50" format="2">
  <advance width="100.0"/>
  <unicode hex="0132"/>
  <unicode hex="0035"/>
  <unicode hex="007A"/>
  <outline>
    <contour>
      <point x="0.0" y="50.30612244897959" type="line"/>
      <point x="0.0" y="450.3061224489796" type="line"/>
      <point x="100.0" y="450.3061224489796" type="line"/>
      <point x="100.0" y="50.30612244897959" type="line"/>
    </contour>
    <component base="cap"/>
    <component base="cap" yOffset="400.0"/>
  </outline>
</glyph>
<glyph name="_53" format="2">
  <advance width="100.0"/>
  <unicode hex="0135"/>
  <outline>
    <contour>
      <point x="0.0" y="50.30612244897959" type="line"/>
      <point x="0.0" y="480.3061224489796" type="line"/>
      <point x="100.0" y="480.3061224489796" type="line"/>
      <point x="100.0" y="50.30612244897959" type="line"/>
    </contour>
    <component base="cap"/>
    <component base="cap" yOffset="430.0"/>
  </outline>
</glyph>
<glyph name="_54" format="2">
  <advance width="100.0"/>
  <unicode hex="0136"/>
  <unicode hex="0042"/>
  <outline>
    <contour>
      <point x="0.0" y="50.30612244897959" type="line"/>
      <point x="0.0" y="490.3061224489796" type="line"/>
      <point x="100.0" y="490.3061224489796" type="line"/>
      <point x="100.0" y="50.30612244897959" type="line"/>
    </contour>
    <component base="cap"/>
    <component base="cap" yOffset="440.0"/>
  </outline>
</glyph>
<glyph name="_56" format="2">
  <advance width="100.0"/>
  <unicode hex="0138"/>
  <unicode hex="2585"/>
  <unicode hex="0043"/>
  <outline>
    <contour>
      <point x="0.0" y="50.30612244897959" type="line"/>
      <point x="0.0" y="510.3061224489796" type="line"/>
      <point x="100.0" y="510.3061224489796" type="line"/>
      <point x="100.0" y="50.30612244897959" type="line"/>
    </contour>
    <component base="cap"/>
    <component base="cap" yOffset="460.0"/>
  </outline>
</glyph>
<glyph name="_58" format="2">
  <advance width="100.0"/>
  <unicode hex="013A"/>
  <unicode hex="0044"/>
  <outline>
    <contour>
      <point x="0.0" y="50.30612244897959" type="line"/>
      <point x="0.0" y="530.3061224489796" type="line"/>
      <point x="100.0" y="530.3061224489796" type="line"/>
      <point x="100.0" y="50.30612244897959" type="line"/>
    </contour>
    <component base="cap"/>
    <component base="cap" yOffset="480.0"/>
  </outline>
</glyph>
<glyph name="_59" format="2">
  <advance width="100.0"/>
  <unicode hex="013B"/>
  <outline>
    <contour>
      <point x="0.0" y="50.30612244897959" type="line"/>
      <point x="0.0" y="540.3061224489796" type="line"/>
      <point x="100.0" y="540.3061224489796" type="line"/>
      <point x="100.0" y="50.30612244897959" type="line"/>
    </contour>
    <component base="cap"/>
    <component base="cap" yOffset="490.0"/>
  </outline>
</glyph>
<glyph name="_62" format="2">
  <advance width="100.0"/>
  <unicode hex="013E"/>
  <unicode hex="0046"/>
  <outline>
    <contour>
      <point x="0.0" y="50.30612244897959" type="line"/>
      <point x="0.0" y="570.3061224489796" type="line"/>
      <point x="100.0" y="570.3061224489796" type="line"/>
      <point x="100.0" y="50.30612244897959" type="line"/>
    </contour>
    <component base="cap"/>
    <component base="cap" yOffset="520.0"/>
  </outline>
</glyph>
<glyph name="_64" format="2">
  <advance width="100.0"/>
  <unicode hex="0140"/>
  <unicode hex="0047"/>
  <outline>
    <contour>
      <point x="0.0" y="50.30612244897959" type="line"/>
      <point x="0.0" y="590.3061224489796" type="line"/>
      <point x="100.0" y="590.3061224489796" type="line"/>
      <point x="100.0" y="50.30612244897959" type="line"/>
    </contour>
    <component base="cap"/>
    <component base="cap" yOffset="540.0"/>
  </outline>
</glyph>
<glyph name="_65" format="2">
  <advance width="100.0"/>
  <unicode hex="0141"/>
  <outline>
    <contour>
      <point x="0.0" y="50.30612244897959" type="line"/>
      <point x="0.0" y="600.3061224489796" type="line"/>
      <point x="100.0" y="600.3061224489796" type="line"/>
      <point x="100.0" y="50.30612244897959" type="line"/>
    </contour>
    <component base="cap"/>
    <component base="cap" yOffset="550.0"/>
  </outline>
</glyph>
<glyph name="_66" format="2">
  <advance width="100.0"/>
  <unicode hex="0142"/>
  <unicode hex="0048"/>
  <outline>
    <contour>
      <point x="0.0" y="50.30612244897959" type="line"/>
      <point x="0.0" y="610.3061224489796" type="line"/>
      <point x="100.0" y="610.3061224489796" type="line"/>
      <point x="100.0" y="50.30612244897959" type="line"/>
    </contour>
    <component base="cap"/>
    <component base="cap" yOffset="560.0"/>
  </outline>
</glyph>
<glyph name="_68" format="2">
  <advance width="100.0"/>
  <unicode hex="0144"/>
  <unicode hex="0049"/>
  <outline>
    <contour>
      <point x="0.0" y="50.30612244897959" type="line"/>
      <point x="0.0" y="630.3061224489796" type="line"/>
      <point x="100.0" y="630.3061224489796" type="line"/>
      <point x="100.0" y="50.30612244897959" type="line"/>
    </contour>
    <component base="cap"/>
    <component base="cap" yOffset="580.0"/>
  </outline>
</glyph>
<glyph name="_69" format="2">
  <advance width="100.0"/>
  <unicode hex="0145"/>
  <outline>
    <contour>
      <point x="0.0" y="50.30612244897959" type="line"/>
      <point x="0.0" y="640.3061224489796" type="line"/>
      <point x="100.0" y="640.3061224489796" type="line"/>
      <point x="100.0" y="50.30612244897959" type="line"/>
    </contour>
    <component base="cap"/>
    <component base="cap" yOffset="590.0"/>
  </outline>
</glyph>
<glyph name="_70" format="2">
  <advance width="100.0"/>
  <unicode hex="0146"/>
  <unicode hex="0037"/>
  <unicode hex="004A"/>
  <outline>
    <contour>
      <point x="0.0" y="50.30612244897959" type="line"/>
      <point x="0.0" y="650.3061224489796" type="line"/>
      <point x="100.0" y="650.3061224489796" type="line"/>
      <point x="100.0" y="50.30612244897959" type="line"/>
    </contour>
    <component base="cap"/>
    <component base="cap" yOffset="600.0"/>
  </outline>
</glyph>
<glyph name="_71" format="2">
  <advance width="100.0"/>
  <unicode hex="0147"/>
  <outline>
    <contour>
      <point x="0.0" y="50.30612244897959" type="line"/>
      <point x="0.0" y="660.3061224489796" type="line"/>
      <point x="100.0" y="660.3061224489796" type="line"/>
      <point x="100.0" y="50.30612244897959" type="line"/>
    </contour>
    <component base="cap"/>
    <component base="cap" yOffset="610.0"/>
  </outline>
</glyph>
<glyph name="_72" format="2">
  <advance width="100.0"/>
  <unicode hex="0148"/>
  <unicode hex="2586"/>
  <unicode hex="004B"/>
  <outline>
    <contour>
      <point x="0.0" y="50.30612244897959" type="line"/>
      <point x="0.0" y="670.3061224489796" type="line"/>
      <point x="100.0" y="670.3061224489796" type="line"/>
      <point x="100.0" y="50.30612244897959" type="line"/>
    </contour>
    <component base="cap"/>
    <component base="cap" yOffset="620.0"/>
  </outline>
</glyph>
<glyph name="_74" format="2">
  <advance width="100.0"/>
  <unicode hex="014A"/>
  <unicode hex="004C"/>
  <outline>
    <contour>
      <point x="0.0" y="50.30612244897959" type="line"/>
      <point x="0.0" y="690.3061224489796" type="line"/>
      <point x="100.0" y="690.3061224489796" type="line"/>
      <point x="100.0" y="50.30612244897959" type="line"/>
    </contour>
    <component base="cap"/>
    <component base="cap" yOffset="640.0"/>
  </outline>
</glyph>
<glyph name="_75" format="2">
  <advance width="100.0"/>
  <unicode hex="014B"/>
  <outline>
    <contour>
      <point x="0.0" y="50.30612244897959" type="line"/>
      <point x="0.0" y="700.3061224489796" type="line"/>
      <point x="100.0" y="700.3061224489796" type="line"/>
      <point x="100.0" y="50.30612244897959" type="line"/>
    </contour>
    <component base="cap"/>
    <component base="cap" yOffset="650.0"/>
  </outline>
</glyph>
<glyph name="_76" format="2">
  <advance width="100.0"/>
  <unicode hex="014C"/>
  <unicode hex="004D"/>
  <outline>
    <contour>
      <point x="0.0" y="50.30612244897959" type="line"/>
      <point x="0.0" y="710.3061224489796" type="line"/>
      <point x="100.0" y="710.3061224489796" type="line"/>
      <point x="100.0" y="50.30612244897959" type="line"/>
    </contour>
    <component base="cap"/>
    <component base="cap" yOffset="660.0"/>
  </outline>
</glyph>
<glyph name="_77" format="2">
  <advance width="100.0"/>
  <unicode hex="014D"/>
  <outline>
    <contour>
      <point x="0.0" y="50.30612244897959" type="line"/>
      <point x="0.0" y="720.3061224489796" type="line"/>
      <point x="100.0" y="720.3061224489796" type="line"/>
      <point x="100.0" y="50.30612244897959" type="line"/>
    </contour>
    <component base="cap"/>
    <component base="cap" yOffset="670.0"/>
  </outline>
</glyph>
<glyph name="_78" format="2">
  <advance width="100.0"/>
  <unicode hex="014E"/>
  <unicode hex="004E"/>
  <outline>
    <contour>
      <point x="0.0" y="50.30612244897959" type="line"/>
      <point x="0.0" y="730.3061224489796" type="line"/>
      <point x="100.0" y="730.3061224489796" type="line"/>
      <point x="100.0" y="50.30612244897959" type="line"/>
    </contour>
    <component base="cap"/>
    <component base="cap" yOffset="680.0"/>
  </outline>
</glyph>
<glyph name="_79" format="2">
  <advance width="100.0"/>
  <unicode hex="014F"/>
  <outline>
    <contour>
      <point x="0.0" y="50.30612244897959" type="line"/>
      <point x="0.0" y="740.3061224489796" type="line"/>
      <point x="100.0" y="740.3061224489796" type="line"/>
      <point x="100.0" y="50.30612244897959" type="line"/>
    </contour>
    <component base="cap"/>
    <component base="cap" yOffset="690.0"/>
  </outline>
</glyph>
<glyph name="_80" format="2">
  <advance width="100.0"/>
  <unicode hex="0150"/>
  <unicode hex="0038"/>
  <unicode hex="004F"/>
  <outline>
    <contour>
      <point x="0.0" y="50.30612244897959" type="line"/>
      <point x="0.0" y="750.3061224489796" type="line"/>
      <point x="100.0" y="750.3061224489796" type="line"/>
      <point x="100.0" y="50.30612244897959" type="line"/>
    </contour>
    <component base="cap"/>
    <component base="cap" yOffset="700.0"/>
  </outline>
</glyph>
<glyph name="_81" format="2">
  <advance width="100.0"/>
  <unicode hex="0151"/>
  <outline>
    <contour>
      <point x="0.0" y="50.30612244897959" type="line"/>
      <point x="0.0" y="760.3061224489796" type="line"/>
      <point x="100.0" y="760.3061224489796" type="line"/>
      <point x="100.0" y="50.30612244897959" type="line"/>
    </contour>
    <component base="cap"/>
    <component base="cap" yOffset="710.0"/>
  </outline>
</glyph>
<glyph name="_84" format="2">
  <advance width="100.0"/>
  <unicode hex="0154"/>
  <unicode hex="0051"/>
  <outline>
    <contour>
      <point x="0.0" y="50.30612244897959" type="line"/>
      <point x="0.0" y="790.3061224489796" type="line"/>
      <point x="100.0" y="790.3061224489796" type="line"/>
      <point x="100.0" y="50.30612244897959" type="line"/>
    </contour>
    <component base="cap"/>
    <component base="cap" yOffset="740.0"/>
  </outline>
</glyph>
<glyph name="_86" format="2">
  <advance width="100.0"/>
  <unicode hex="0156"/>
  <unicode hex="2587"/>
  <unicode hex="0052"/>
  <outline>
    <contour>
      <point x="0.0" y="50.30612244897959" type="line"/>
      <point x="0.0" y="810.3061224489796" type="line"/>
      <point x="100.0" y="810.3061224489796" type="line"/>
      <point x="100.0" y="50.30612244897959" type="line"/>
    </contour>
    <component base="cap"/>
    <component base="cap" yOffset="760.0"/>
  </outline>
</glyph>
<glyph name="_89" format="2">
  <advance width="100.0"/>
  <unicode hex="0159"/>
  <outline>
    <contour>
      <point x="0.0" y="50.30612244897959" type="line"/>
      <point x="0.0" y="840.3061224489796" type="line"/>
      <point x="100.0" y="840.3061224489796" type="line"/>
      <point x="100.0" y="50.30612244897959" type="line"/>
    </contour>
    <component base="cap"/>
    <component base="cap" yOffset="790.0"/>
  </outline>
</glyph>
<glyph name="_90" format="2">
  <advance width="100.0"/>
  <unicode hex="015A"/>
  <unicode hex="0039"/>
  <unicode hex="0054"/>
  <outline>
    <contour>
      <point x="0.0" y="50.30612244897959" type="line"/>
      <point x="0.0" y="850.3061224489796" type="line"/>
      <point x="100.0" y="850.3061224489796" type="line"/>
      <point x="100.0" y="50.30612244897959" type="line"/>
    </contour>
    <component base="cap"/>
    <component base="cap" yOffset="800.0"/>
  </outline>
</glyph>
<glyph name="_91" format="2">
  <advance width="100.0"/>
  <unicode hex="015B"/>
  <outline>
    <contour>
      <point x="0.0" y="50.30612244897959" type="line"/>
      <point x="0.0" y="860.3061224489796" type="line"/>
      <point x="100.0" y="860.3061224489796" type="line"/>
      <point x="100.0" y="50.30612244897959" type="line"/>
    </contour>
    <component base="cap"/>
    <component base="cap" yOffset="810.0"/>
  </outline>
</glyph>
<glyph name="_94" format="2">
  <advance width="100.0"/>
  <unicode hex="015E"/>
  <unicode hex="0056"/>
  <outline>
    <contour>
      <point x="0.0" y="50.30612244897959" type="line"/>
      <point x="0.0" y="890.3061224489796" type="line"/>
      <point x="100.0" y="890.3061224489796" type="line"/>
      <point x="100.0" y="50.30612244897959" type="line"/>
    </contour>
    <component base="cap"/>
    <component base="cap" yOffset="840.0"/>
  </outline>
</glyph>
<glyph name="_95" format="2">
  <advance width="100.0"/>
  <unicode hex="015F"/>
  <outline>
    <contour>
      <point x="0.0" y="50.30612244897959" type="line"/>
      <point x="0.0" y="900.3061224489796" type="line"/>
      <point x="100.0" y="900.3061224489796" type="line"/>
      <point x="100.0" y="50.30612244897959" type="line"/>
    </contour>
    <component base="cap"/>
    <component base="cap" yOffset="850.0"/>
  </outline>
</glyph>
<glyph name="_96" format="2">
  <advance width="100.0"/>
  <unicode hex="0160"/>
  <unicode hex="0057"/>
  <outline>
    <contour>
      <point x="0.0" y="50.30612244897959" type="line"/>
      <point x="0.0" y="910.3061224489796" type="line"/>
      <point x="100.0" y="910.3061224489796" type="line"/>
      <point x="100.0" y="50.30612244897959" type="line"/>
    </contour>
    <component base="cap"/>
    <component base="cap" yOffset="860.0"/>
  </outline>
</glyph>
<glyph name="_97" format="2">
  <advance width="100.0"/>
  <unicode hex="0161"/>
  <outline>
    <contour>
      <point x="0.0" y="50.30612244897959" type="line"/>
      <point x="0.0" y="920.3061224489796" type="line"/>
      <point x="100.0" y="920.3061224489796" type="line"/>
      <point x="100.0" y="50.30612244897959" type="line"/>
    </contour>
    <component base="cap"/>
    <component base="cap" yOffset="870.0"/>
  </outline>
</glyph>
<glyph name="_98" format="2">
  <advance width="100.0"/>
  <unicode hex="0162"/>
  <unicode hex="0058"/>
  <outline>
    <contour>
      <point x="0.0" y="50.30612244897959" type="line"/>
      <point x="0.0" y="930.3061224489796" type="line"/>
      <point x="100.0" y="930.3061224489796" type="line"/>
      <point x="100.0" y="50.30612244897959" type="line"/>
    </contour>
    <component base="cap"/>
    <component base="cap" yOffset="880.0"/>
  </outline>
</glyph>
<glyph name="_99" format="2">
  <advance width="100.0"/>
  <unicode hex="0163"/>
  <unicode hex="0059"/>
  <outline>
    <contour>
      <point x="0.0" y="50.30612244897959" type="line"/>
      <point x="0.0" y="940.3061224489796" type="line"/>
      <point x="100.0" y="940.3061224489796" type="line"/>
      <point x="100.0" y="50.30612244897959" type="line"/>
    </contour>
    <component base="cap"/>
    <component base="cap" yOffset="890.0"/>
  </outline>
</glyph>
<glyph name="_100" format="2">
  <advance width="100.0"/>
  <unicode hex="0164"/>
  <unicode hex="007C"/>
  <unicode hex="2588"/>
  <unicode hex="005A"/>
  <outline>
    <contour>
      <point x="0.0" y="50.30612244897959" type="line"/>
      <point x="0.0" y="950.3061224489796" type="line"/>
      <point x="100.0" y="950.3061224489796" type="line"/>
      <point x="100.0" y="50.30612244897959" type="line"/>
    </contour>
    <component base="cap"/>
    <component base="cap" yOffset="900.0"/>
  </outline>
</glyph>
<glyph name="_108" format="2">
  <advance width="100.0"/>
  <unicode hex="016C"/>
  <outline>
    <contour>
      <point x="0.0" y="50.30612244897959" type="line"/>
      <point x="0.0" y="1030.3061224489795" type="line"/>
      <point x="100.0" y="1030.3061224489795" type="line"/>
      <point x="100.0" y="50.30612244897959" type="line"/>
    </contour>
    <component base="cap"/>
    <component base="cap" yOffset="980.0"/>
  </outline>
</glyph>
<glyph name="_109" format="2">
  <advance width="100.0"/>
  <unicode hex="016D"/>
  <outline>
    <contour>
      <point x="0.0" y="50.30612244897959" type="line"/>
      <point x="0.0" y="1040.3061224489795" type="line"/>
      <point x="100.0" y="1040.3061224489795" type="line"/>
      <point x="100.0" y="50.30612244897959" type="line"/>
    </contour>
    <component base="cap"/>
    <component base="cap" yOffset="990.0"/>
  </outline>
</glyph>
<glyph name="_110" format="2">
  <advance width="100.0"/>
  <unicode hex="016E"/>
  <outline>
    <contour>
      <point x="0.0" y="50.30612244897959" type="line"/>
      <point x="0.0" y="1050.3061224489795" type="line"/>
      <point x="100.0" y="1050.3061224489795" type="line"/>
      <point x="100.0" y="50.30612244897959" type="line"/>
    </contour>
    <component base="cap"/>
    <component base="cap" yOffset="1000.0"/>
  </outline>
</glyph>
<glyph name="_111" format="2">
  <advance width="100.0"/>
  <unicode hex="016F"/>
  <outline>
    <contour>
      <point x="0.0" y="50.30612244897959" type="line"/>
      <point x="0.0" y="1060.3061224489795" type="line"/>
      <point x="100.0" y="1060.3061224489795" type="line"/>
      <point x="100.0" y="50.30612244897959" type="line"/>
    </contour>
    <component base="cap"/>
    <component base="cap" yOffset="1010.0"/>
  </outline>
</glyph>
<glyph name="_112" format="2">
  <advance width="100.0"/>
  <unicode hex="0170"/>
  <outline>
    <contour>
      <point x="0.0" y="50.30612244897959" type="line"/>
      <point x="0.0" y="1070.3061224489795" type="line"/>
      <point x="100.0" y="1070.3061224489795" type="line"/>
      <point x="100.0" y="50.30612244897959" type="line"/>
    </contour>
    <component base="cap"/>
    <component base="cap" yOffset="1020.0"/>
  </outline>
</glyph>
<glyph name="_114" format="2">
  <advance width="100.0"/>
  <unicode hex="0172"/>
  <outline>
    <contour>
      <point x="0.0" y="50.30612244897959" type="line"/>
      <point x="0.0" y="1090.3061224489795" type="line"/>
      <point x="100.0" y="1090.3061224489795" type="line"/>
      <point x="100.0" y="50.30612244897959" type="line"/>
    </contour>
    <component base="cap"/>
    <component base="cap" yOffset="1040.0"/>
  </outline>
</glyph>
<glyph name="_115" format="2">
  <advance width="100.0"/>
  <unicode hex="0173"/>
  <outline>
    <contour>
      <point x="0.0" y="50.30612244897959" type="line"/>
      <point x="0.0" y="1100.3061224489795" type="line"/>
      <point x="100.0" y="1100.3061224489795" type="line"/>
      <point x="100.0" y="50.30612244897959" type="line"/>
    </contour>
    <component base="cap"/>
    <component base="cap" yOffset="1050.0"/>
  </outline>
</glyph>
<glyph name="_118" format="2">
  <advance width="100.0"/>
  <unicode hex="0176"/>
  <outline>
    <contour>
      <point x="0.0" y="50.30612244897959" type="line"/>
      <point x="0.0" y="1130.3061224489795" type="line"/>
      <point x="100.0" y="1130.3061224489795" type="line"/>
      <point x="100.0" y="50.30612244897959" type="line"/>
    </contour>
    <component base="cap"/>
    <component base="cap" yOffset="1080.0"/>
  </outline>
</glyph>
<glyph name="_119" format="2">
  <advance width="100.0"/>
  <unicode hex="0177"/>
  <outline>
    <contour>
      <point x="0.0" y="50.30612244897959" type="line"/>
      <point x="0.0" y="1140.3061224489795" type="line"/>
      <point x="100.0" y="1140.3061224489795" type="line"/>
      <point x="100.0" y="50.30612244897959" type="line"/>
    </contour>
    <component base="cap"/>
    <component base="cap" yOffset="1090.0"/>
  </outline>
</glyph>
<glyph name="_121" format="2">
  <advance width="100.0"/>
  <unicode hex="0179"/>
  <outline>
    <contour>
      <point x="0.0" y="50.30612244897959" type="line"/>
      <point x="0.0" y="1160.3061224489795" type="line"/>
      <point x="100.0" y="1160.3061224489795" type="line"/>
      <point x="100.0" y="50.30612244897959" type="line"/>
    </contour>
    <component base="cap"/>
    <component base="cap" yOffset="1110.0"/>
  </outline>
</glyph>
<glyph name="_123" format="2">
  <advance width="100.0"/>
  <unicode hex="017B"/>
  <outline>
    <contour>
      <point x="0.0" y="50.30612244897959" type="line"/>
      <point x="0.0" y="1180.3061224489795" type="line"/>
      <point x="100.0" y="1180.3061224489795" type="line"/>
      <point x="100.0" y="50.30612244897959" type="line"/>
    </contour>
    <component base="cap"/>
    <component base="cap" yOffset="1130.0"/>
  </outline>
</glyph>
<glyph name="_124" format="2">
  <advance width="100.0"/>
  <unicode hex="017C"/>
  <outline>
    <contour>
      <point x="0.0" y="50.30612244897959" type="line"/>
      <point x="0.0" y="1190.3061224489795" type="line"/>
      <point x="100.0" y="1190.3061224489795" type="line"/>
      <point x="100.0" y="50.30612244897959" type="line"/>
    </contour>
    <component base="cap"/>
    <component base="cap" yOffset="1140.0"/>
  </outline>
</glyph>
<glyph name="_125" format="2">
  <advance width="100.0"/>
  <unicode hex="017D"/>
  <outline>
    <contour>
      <point x="0.0" y="50.30612244897959" type="line"/>
      <point x="0.0" y="1200.3061224489795" type="line"/>
      <point x="100.0" y="1200.3061224489795" type="line"/>
      <point x="100.0" y="50.30612244897959" type="line"/>
    </contour>
    <component base="cap"/>
    <component base="cap" yOffset="1150.0"/>
  </outline>
</glyph>
<glyph name="_127" format="2">
  <advance width="100.0"/>
  <unicode hex="017F"/>
  <outline>
    <contour>
      <point x="0.0" y="50.30612244897959" type="line"/>
      <point x="0.0" y="1220.3061224489795" type="line"/>
      <point x="100.0" y="1220.3061224489795" type="line"/>
      <point x="100.0" y="50.30612244897959" type="line"/>
    </contour>
    <component base="cap"/>
    <component base="cap" yOffset="1170.0"/>
  </outline>
</glyph>
<glyph name="_1.clip" format="2">
  <advance width="100.0"/>
  <outline>
    <contour>
      <point x="0.0" y="50.30612244897959" type="line"/>
      <point x="0.0" y="-39.69387755102041" type="line"/>
      <point x="100.0" y="-39.69387755102041" type="line"/>
      <point x="100.0" y="50.30612244897959" type="line"/>
    </contour>
    <component base="cap"/>
    <component base="cap" yOffset="-90.0"/>
  </outline>
</glyph>
<glyph name="_11.clip" format="2">
  <advance width="100.0"/>
  <outline>
    <contour>
      <point x="55.0" y="110.0" type="curve" smooth="yes"/>
      <point x="45.0" y="110.0" type="line"/>
      <point x="75.25" y="110.0"/>
      <point x="100.0" y="85.25"/>
      <point x="100.0" y="55.0" type="curve" smooth="yes"/>
      <point x="100.0" y="55.0" type="line"/>
      <point x="100.0" y="24.75"/>
      <point x="75.25" y="0.0"/>
      <point x="45.0" y="0.0" type="curve" smooth="yes"/>
      <point x="55.0" y="0.0" type="line"/>
      <point x="24.75" y="0.0"/>
      <point x="0.0" y="24.75"/>
      <point x="0.0" y="55.0" type="curve" smooth="yes"/>
      <point x="0.0" y="55.0" type="line"/>
      <point x="0.0" y="85.25"/>
      <point x="24.75" y="110.0"/>
    </contour>
  </outline>
</glyph>
<glyph name="_15.clip" format="2">
  <advance width="100.0"/>
  <outline>
    <contour>
      <point x="75.0" y="150.0" type="curve" smooth="yes"/>
      <point x="25.0" y="150.0" type="line"/>
      <point x="66.25" y="150.0"/>
      <point x="100.0" y="116.25"/>
      <point x="100.0" y="75.0" type="curve" smooth="yes"/>
      <point x="100.0" y="75.0" type="line"/>
      <point x="100.0" y="33.75"/>
      <point x="66.25" y="0.0"/>
      <point x="25.0" y="0.0" type="curve" smooth="yes"/>
      <point x="75.0" y="0.0" type="line"/>
      <point x="33.75" y="0.0"/>
      <point x="0.0" y="33.75"/>
      <point x="0.0" y="75.0" type="curve" smooth="yes"/>
      <point x="0.0" y="75.0" type="line"/>
      <point x="0.0" y="116.25"/>
      <point x="33.75" y="150.0"/>
    </contour>
  </outline>
</glyph>
<glyph name="_24.clip" format="2">
  <advance width="100.0"/>
  <outline>
    <contour>
      <point x="120.0" y="240.0" type="curve" smooth="yes"/>
      <point x="-20.0" y="240.0" type="line"/>
      <point x="46.61224489795919" y="240.0"/>
      <point x="100.0" y="186.0"/>
      <point x="100.0" y="120.0" type="curve" smooth="yes"/>
      <point x="100.0" y="120.0" type="line"/>
      <point x="100.0" y="53.0"/>
      <point x="46.61224489795919" y="0.0"/>
      <point x="-20.0" y="0.0" type="curve" smooth="yes"/>
      <point x="120.0" y="0.0" type="line"/>
      <point x="53.0" y="0.0"/>
      <point x="0.0" y="53.0"/>
      <point x="0.0" y="120.0" type="curve" smooth="yes"/>
      <point x="0.0" y="120.0" type="line"/>
      <point x="0.0" y="186.0"/>
      <point x="53.0" y="240.0"/>
    </contour>
  </outline>
</glyph>
<glyph name="_3.clip" format="2">
  <advance width="100.0"/>
  <outline>
    <contour>
      <point x="0.0" y="50.30612244897959" type="line"/>
      <point x="0.0" y="-19.693877551020407" type="line"/>
      <point x="100.0" y="-19.693877551020407" type="line"/>
      <point x="100.0" y="50.30612244897959" type="line"/>
    </contour>
    <component base="cap"/>
    <component base="cap" yOffset="-70.0"/>
  </outline>
</glyph>
<glyph name="_4.clip" format="2">
  <advance width="100.0"/>
  <outline>
    <contour>
      <point x="0.0" y="50.30612244897959" type="line"/>
      <point x="0.0" y="-9.693877551020407" type="line"/>
      <point x="100.0" y="-9.693877551020407" type="line"/>
      <point x="100.0" y="50.30612244897959" type="line"/>
    </contour>
    <component base="cap"/>
    <component base="cap" yOffset="-60.0"/>
  </outline>
</glyph>
<glyph name="_5.clip" format="2">
  <advance width="100.0"/>
  <outline>
    <contour>
      <point x="0.0" y="50.30612244897959" type="line"/>
      <point x="0.0" y="0.3061224489795933" type="line"/>
      <point x="100.0" y="0.3061224489795933" type="line"/>
      <point x="100.0" y="50.30612244897959" type="line"/>
    </contour>
    <component base="cap"/>
    <component base="cap" yOffset="-50.0"/>
  </outline>
</glyph>
<glyph name="_6.clip" format="2">
  <advance width="100.0"/>
  <outline>
    <contour>
      <point x="0.0" y="50.30612244897959" type="line"/>
      <point x="0.0" y="10.306122448979593" type="line"/>
      <point x="100.0" y="10.306122448979593" type="line"/>
      <point x="100.0" y="50.30612244897959" type="line"/>
    </contour>
    <component base="cap"/>
    <component base="cap" yOffset="-40.0"/>
  </outline>
</glyph>
<glyph name="_7.clip" format="2">
  <advance width="100.0"/>
  <outline>
    <contour>
      <point x="0.0" y="50.30612244897959" type="line"/>
      <point x="0.0" y="20.306122448979593" type="line"/>
      <point x="100.0" y="20.306122448979593" type="line"/>
      <point x="100.0" y="50.30612244897959" type="line"/>
    </contour>
    <component base="cap"/>
    <component base="cap" yOffset="-30.0"/>
  </outline>
</glyph>
